<?xml version="1.0" encoding="UTF-8"?><svg id="Capa_1" xmlns="http://www.w3.org/2000/svg" viewBox="0 0 63.2 62.95"><defs><style>.cls-1{fill:#17a4a7;}.cls-2{fill:#004a98;}</style></defs><path class="cls-2" d="m32.18,14.15c-3.71,3.6-8.15,5.28-13.97,5.28-.94.27-.95.95-.95.95,0,.95-.02,1.94-.04,2.96-.18,9.48-.43,22.47,15.31,27.93l.31.11.31-.11c15.74-5.46,15.5-18.44,15.32-27.93-.02-1.02-.04-2.01-.04-2.96,0,0,.09-.93-.95-.95-5.83,0-10.27-1.68-13.98-5.28-.68-.63-1.33,0-1.33,0Zm1.28,34.98c-.39.15-.84.15-1.24,0-13.5-5.18-13.28-16.57-13.11-25.75,0-.48.02-.95.02-1.42,0-.36.29-.65.65-.67,5.04-.26,9.1-1.8,12.59-4.76.26-.22.65-.22.91,0,3.46,2.94,7.49,4.48,12.48,4.76.43.02.76.36.77.79s.01.86.02,1.3c.18,9.19.39,20.58-13.11,25.76Z"/><path class="cls-1" d="m31.59,36.97l7.07-7.15c.51-.52.51-1.35,0-1.87h0c-.52-.51-1.35-.51-1.87,0l-6.04,6.1-1.86-1.84c-.52-.51-1.36-.51-1.87,0h0c-.51.52-.51,1.35,0,1.87l2.89,2.87c.46.46,1.21.46,1.67,0Z"/></svg>