<?xml version="1.0" encoding="utf-8"?>
<!-- Generator: Adobe Illustrator 26.5.0, SVG Export Plug-In . SVG Version: 6.00 Build 0)  -->
<svg version="1.1" id="Capa_1" xmlns="http://www.w3.org/2000/svg" xmlns:xlink="http://www.w3.org/1999/xlink" x="0px" y="0px"
	 viewBox="0 0 150.4 168.2" style="enable-background:new 0 0 150.4 168.2;" xml:space="preserve">
<style type="text/css">
</style>
<g>
	<path class="st0" d="M60.8,22.3H46.4c-8,0-14.4,5.6-14.4,12.4v105.8c0,6.9,6.4,12.4,14.4,12.4H104c8,0,14.4-5.6,14.4-12.4V34.8
		c0-6.9-6.4-12.4-14.4-12.4H89.6c0-3.4-3.2-7.2-7.2-7.2H68C64,15.1,60.8,18.9,60.8,22.3z M104,28.6c4,0,7.2,2.8,7.2,6.2v105.8
		c0,3.4-3.2,6.2-7.2,6.2H46.4c-4,0-7.2-2.8-7.2-6.2V34.8c0-3.4,3.2-6.2,7.2-6.2L104,28.6L104,28.6z"/>
	<path class="st0" d="M102.4,137.2H47.9c-2.8,0-5.2-2.3-5.2-5.2v-7.3c0-2.8,2.3-5.2,5.2-5.2h54.5c2.8,0,5.2,2.3,5.2,5.2v7.3
		C107.5,134.9,105.2,137.2,102.4,137.2z"/>
	<path class="st0" d="M102.4,110.4H47.9c-2.8,0-5.2-2.3-5.2-5.2v-7.3c0-2.8,2.3-5.2,5.2-5.2h54.5c2.8,0,5.2,2.3,5.2,5.2v7.3
		C107.5,108.1,105.2,110.4,102.4,110.4z"/>
	<path class="st0" d="M102.4,83H47.9c-2.8,0-5.2-2.3-5.2-5.2v-7.3c0-2.8,2.3-5.2,5.2-5.2h54.5c2.8,0,5.2,2.3,5.2,5.2v7.3
		C107.5,80.7,105.2,83,102.4,83z"/>
	<path class="st0" d="M102.4,56H48c-2.8,0-5.2-2.3-5.2-5.2v-7.3c0-2.8,2.3-5.2,5.2-5.2h54.5c2.8,0,5.2,2.3,5.2,5.2v7.3
		C107.6,53.7,105.3,56,102.4,56z"/>
</g>
</svg>
