<?xml version="1.0" encoding="UTF-8"?><svg id="Capa_1" xmlns="http://www.w3.org/2000/svg" viewBox="0 0 63.2 62.95"><defs><style>.cls-1{fill:#004a98;}</style></defs><path class="cls-1" d="m47.07,37.77c.69-.89,1.03-1.83.98-2.81-.04-1.08-.52-1.92-.92-2.44.46-1.15.64-2.95-.9-4.36-1.13-1.03-3.04-1.49-5.69-1.36-1.86.08-3.42.43-3.48.45h0c-.35.06-.73.14-1.11.23-.03-.45.05-1.58.89-4.12.99-3.02.93-5.33-.18-6.87-1.18-1.62-3.05-1.75-3.61-1.75s-1.02.22-1.37.62c-.79.91-.69,2.6-.59,3.38-.93,2.51-3.56,8.66-5.77,10.36-.04.03-.08.06-.11.1-.65.69-1.09,1.43-1.39,2.08-.42-.23-.89-.35-1.4-.35h-4.32c-1.63,0-2.95,1.32-2.95,2.95v11.51c0,1.63,1.32,2.95,2.95,2.95h4.32c.63,0,1.22-.2,1.7-.54l1.66.2c.25.04,4.79.61,9.44.52.84.06,1.64.1,2.37.1,1.27,0,2.37-.1,3.29-.3,2.17-.46,3.65-1.38,4.4-2.73.57-1.03.57-2.06.48-2.71,1.41-1.27,1.66-2.68,1.61-3.68-.03-.57-.16-1.06-.29-1.42Zm-28.99,8.66c-.57,0-1.03-.47-1.03-1.03v-11.52c0-.57.47-1.03,1.03-1.03h4.32c.57,0,1.03.47,1.03,1.03v11.51c0,.57-.47,1.03-1.03,1.03h-4.32Zm27.18-9.48c-.3.31-.35.79-.13,1.15,0,0,.29.5.33,1.18.05.93-.4,1.75-1.33,2.45-.33.25-.47.69-.33,1.09,0,0,.3.94-.19,1.83-.47.85-1.53,1.46-3.13,1.8-1.28.28-3.02.33-5.16.16h-.1c-4.55.1-9.16-.5-9.21-.5h0l-.72-.08c.04-.2.06-.41.06-.62v-11.52c0-.3-.05-.6-.13-.88.13-.47.48-1.53,1.32-2.43,3.18-2.52,6.29-11.03,6.42-11.4.06-.15.07-.31.04-.47-.12-.79-.08-1.76.09-2.05.38,0,1.39.11,2,.96.72,1,.69,2.78-.08,5.15-1.19,3.61-1.29,5.5-.35,6.34.47.42,1.09.44,1.54.28.43-.1.84-.18,1.23-.25.03,0,.06-.01.09-.02,2.17-.47,6.07-.76,7.42.47,1.15,1.05.33,2.44.24,2.59-.26.4-.18.91.17,1.23,0,0,.75.71.79,1.65.03.63-.27,1.27-.89,1.91Z"/></svg>