<?xml version="1.0" encoding="UTF-8"?><svg id="Capa_1" xmlns="http://www.w3.org/2000/svg" viewBox="0 0 63.2 62.95"><defs><style>.cls-1{fill:#17a4a7;}.cls-2{fill:#004a98;}</style></defs><path class="cls-2" d="m31.6,12.72c-7.87,0-14.25,6.65-14.25,14.85,0,0,0,12.65,13.79,22.51.28.2.66.19.92-.03,2.41-1.93,13.54-11.43,13.8-22.49.19-8.2-6.38-14.85-14.25-14.85Zm12.37,14.97c-.22,9.26-9.77,18.2-11.94,19.95-.27.21-.64.22-.92.02-11.6-8.35-11.89-19.92-11.89-19.92,0-6.94,5.68-13.14,12.35-13.14s12.56,6.15,12.4,13.09Z"/><path class="cls-1" d="m31.57,21.63c-3.3,0-5.98,2.68-5.98,5.98s2.68,5.98,5.98,5.98,5.98-2.68,5.98-5.98-2.68-5.98-5.98-5.98Zm4.28,5.95c0,2.38-1.93,4.3-4.3,4.3s-4.3-1.93-4.3-4.3,1.93-4.3,4.3-4.3,4.3,1.93,4.3,4.3Z"/></svg>