<?xml version="1.0" encoding="UTF-8"?><svg id="Capa_1" xmlns="http://www.w3.org/2000/svg" viewBox="0 0 63.2 62.95"><defs><style>.cls-1{fill:#17a0a3;}.cls-2{fill:#004a98;}</style></defs><path class="cls-2" d="m31.81,9.35c-11.99,0-22.07,10.14-22.07,22.12s10.08,22.12,22.07,22.12,22.12-10.15,22.12-22.14-10.14-22.11-22.12-22.11Zm0,42.36c-11.18,0-20.24-9.06-20.24-20.24S20.64,11.23,31.81,11.23s20.24,9.06,20.24,20.24-9.06,20.24-20.24,20.24Z"/><path class="cls-2" d="m31.81,13.16c-10.11,0-18.31,8.2-18.31,18.31s8.2,18.31,18.31,18.31,18.31-8.2,18.31-18.31-8.2-18.31-18.31-18.31Zm.03,34.74c-9.32,0-16.45-7.12-16.45-16.44s7.11-16.42,16.43-16.42,16.43,7.11,16.43,16.43-7.08,16.43-16.4,16.43Z"/><path class="cls-1" d="m22.08,31.59l6.75,1.89c.47.14.84.51.97.99l1.88,7.1c.07.28.44.55.86.57h0c.34-.02.75-.41.87-.74l6.62-17.28c.2-.52.15-1.18-.27-1.55,0,0-.01-.01-.02-.02-.4-.34-.94-.35-1.42-.13l-16.14,7.39c-.39.18-.78.7-.71,1.11h0c.05.3.34.54.61.67Zm10.65,6.55l-1.35-5.14c-.13-.5-.51-.89-1.01-1.02l-5.19-1.47,12.53-5.72-4.99,13.36Z"/><rect class="cls-2" x="15.13" y="29.32" width="1.88" height="4.31" rx=".94" ry=".94" transform="translate(47.55 15.4) rotate(90)"/><rect class="cls-2" x="46.61" y="29.32" width="1.88" height="4.31" rx=".94" ry=".94" transform="translate(79.03 -16.08) rotate(90)"/><rect class="cls-2" x="30.9" y="44.91" width="1.88" height="4.31" rx=".94" ry=".94" transform="translate(63.68 94.12) rotate(180)"/><rect class="cls-2" x="30.87" y="13.42" width="1.88" height="4.31" rx=".94" ry=".94" transform="translate(63.63 31.15) rotate(180)"/></svg>