<?xml version="1.0" encoding="UTF-8"?><svg id="Capa_1" xmlns="http://www.w3.org/2000/svg" viewBox="0 0 63.2 62.95"><defs><style>.cls-1{fill:#17a4a7;}.cls-2{fill:#004a98;}</style></defs><path class="cls-1" d="m30.75,27.33h1.48c.44,0,.79.36.77.8l-.57,10.59c-.01.42-.36.75-.78.75h-.34c-.42,0-.76-.33-.77-.75l-.57-10.59c-.01-.44.34-.8.78-.8m1.93,17.07c-.3.3-.66.46-1.09.46s-.79-.15-1.09-.46c-.3-.3-.45-.66-.45-1.08s.15-.78.45-1.08c.3-.3.66-.46,1.09-.46s.79.15,1.09.46c.3.3.45.67.45,1.08s-.15.78-.45,1.08"/><path class="cls-2" d="m51.52,46.39l-17.86-29.81c-1-1.67-3.43-1.66-4.42.02l-17.57,29.81c-1.01,1.71.23,3.87,2.21,3.87h35.43c2,0,3.23-2.18,2.2-3.89Zm-2.43,1.98H14.02c-.59,0-.93-.58-.66-1.15l17.56-29.72c.29-.5.84-.44,1.12,0l17.69,29.72c.46.65-.06,1.16-.66,1.16Z"/></svg>