<?xml version="1.0" encoding="utf-8"?>
<!-- Generator: Adobe Illustrator 26.5.0, SVG Export Plug-In . SVG Version: 6.00 Build 0)  -->
<svg version="1.1" id="Capa_1" xmlns="http://www.w3.org/2000/svg" xmlns:xlink="http://www.w3.org/1999/xlink" x="0px" y="0px"
	 viewBox="0 0 150.4 168.2" style="enable-background:new 0 0 150.4 168.2;" xml:space="preserve">
<style type="text/css">
</style>
<path class="st0" d="M60.8,22.3H46.4c-8,0-14.4,5.6-14.4,12.4v105.8c0,6.9,6.4,12.4,14.4,12.4H104c8,0,14.4-5.6,14.4-12.4V34.8
	c0-6.9-6.4-12.4-14.4-12.4H89.6c0-3.4-3.2-7.2-7.2-7.2H68C64,15.1,60.8,18.9,60.8,22.3z M104,28.6c4,0,7.2,2.8,7.2,6.2v105.8
	c0,3.4-3.2,6.2-7.2,6.2H46.4c-4,0-7.2-2.8-7.2-6.2V34.8c0-3.4,3.2-6.2,7.2-6.2L104,28.6L104,28.6z"/>
</svg>
