<svg width="600" height="600" viewBox="0 0 600 600" fill="none" xmlns="http://www.w3.org/2000/svg">
<path d="M299.993 406.523C283.219 406.523 269.158 419.931 269.158 435.925C269.158 451.92 283.219 465.327 299.993 465.327C316.15 465.327 330.827 451.92 330.087 436.631C330.827 419.813 316.89 406.523 299.993 406.523Z" fill="white"/>
<path d="M585.399 510.723C604.764 478.852 604.887 440.864 585.646 409.11L392.497 90.1592C373.379 58.0524 338.844 39 300.116 39C261.387 39 226.852 58.17 207.735 90.0416L14.3388 409.346C-4.90214 441.452 -4.77881 479.675 14.7088 511.546C33.9497 543.065 68.3614 562 106.843 562H492.648C531.253 562 565.912 542.83 585.399 510.723ZM543.464 487.672C532.734 505.313 513.739 515.78 492.525 515.78H106.72C85.7522 515.78 66.8813 505.548 56.3974 488.26C45.7903 470.737 45.6669 449.803 56.2741 432.161L249.67 112.975C260.154 95.4515 278.901 85.1021 300.116 85.1021C321.207 85.1021 340.078 95.5692 350.562 113.093L543.834 432.279C554.195 449.45 554.071 470.149 543.464 487.672Z" fill="white"/>
<path d="M292.346 200.123C277.668 204.122 268.541 216.824 268.541 232.23C269.281 241.521 269.898 250.93 270.638 260.221C272.735 295.62 274.832 330.315 276.928 365.715C277.668 377.71 287.412 386.413 299.993 386.413C312.573 386.413 322.441 377.122 323.057 365.009C323.057 357.717 323.057 351.014 323.797 343.604C325.154 320.906 326.634 298.208 327.991 275.51C328.731 260.809 330.088 246.108 330.828 231.407C330.828 226.115 330.088 221.41 327.991 216.706C321.7 203.534 307.023 196.83 292.346 200.123Z" fill="white"/>
</svg>
