<svg width="600" height="600" viewBox="0 0 600 600" fill="none" xmlns="http://www.w3.org/2000/svg">
<path d="M300.501 378.504C322.058 378.504 339.537 360.996 339.537 339.403V161.128C339.537 139.532 322.058 122.028 300.501 122.028C278.944 122.028 261.465 139.532 261.465 161.128V339.406C261.465 360.999 278.944 378.504 300.501 378.504Z" fill="white"/>
<path d="M300.511 399.786C290.236 399.786 280.146 403.947 272.901 411.235C265.628 418.492 261.475 428.565 261.475 438.856C261.475 449.147 265.628 459.251 272.901 466.508C280.146 473.796 290.236 477.957 300.511 477.957C310.785 477.957 320.84 473.796 328.117 466.508C335.359 459.251 339.546 449.147 339.546 438.856C339.546 428.565 335.359 418.492 328.117 411.235C320.84 403.947 310.785 399.786 300.511 399.786Z" fill="white"/>
<path d="M300.502 0C135.358 0 1 134.579 1 300C1 465.421 135.355 600 300.502 600C465.648 600 600 465.421 600 300C600 134.579 465.648 0 300.502 0ZM300.502 553.079C161.184 553.079 47.843 439.549 47.843 300C47.843 160.451 161.184 46.9209 300.502 46.9209C439.816 46.9209 553.157 160.451 553.157 300C553.157 439.549 439.819 553.079 300.502 553.079Z" fill="white"/>
</svg>
