<svg width="600" height="600" viewBox="0 0 600 600" fill="none" xmlns="http://www.w3.org/2000/svg">
<path d="M438.153 196.614C428.694 188.016 413.985 188.69 405.341 198.194L263.59 354.283L195.108 284.663C186.068 275.507 171.382 275.368 162.25 284.384C153.094 293.377 152.955 308.086 161.971 317.242L247.695 404.384C252.087 408.845 258.035 411.332 264.263 411.332C264.402 411.332 264.565 411.332 264.705 411.356C271.118 411.216 277.16 408.474 281.459 403.734L439.731 229.45C448.354 219.922 447.657 205.236 438.153 196.614Z" fill="white"/>
<path d="M300 0C134.57 0 0 134.57 0 300C0 465.43 134.57 600 300 600C465.43 600 600 465.407 600 300C600 134.593 465.43 0 300 0ZM300 553.525C160.225 553.525 46.4754 439.799 46.4754 300C46.4754 160.201 160.225 46.4754 300 46.4754C439.799 46.4754 553.525 160.201 553.525 300C553.525 439.799 439.775 553.525 300 553.525Z" fill="white"/>
</svg>
