<svg width="600" height="600" viewBox="0 0 600 600" fill="none" xmlns="http://www.w3.org/2000/svg">
<path d="M292.229 378.266C292.159 378.266 292.09 378.266 292.021 378.266C279.28 378.151 269.032 367.759 269.148 355.042L269.252 343.533C269.252 342.877 269.286 342.21 269.356 341.554C272.552 308.075 294.837 287.555 312.759 271.064C318.829 265.47 324.576 260.188 329.47 254.675C335.436 247.966 344.091 234.224 334.986 217.64C324.496 198.49 298.876 193.07 278.969 197.615C258.173 202.357 250.51 220.069 247.786 230.196C244.486 242.476 231.826 249.761 219.512 246.481C207.199 243.19 199.894 230.565 203.183 218.285C212.38 184.024 236.246 160.143 268.652 152.743C312.263 142.811 356.186 160.385 375.47 195.544C391.522 224.822 387.126 259.175 363.987 285.208C357.559 292.435 350.692 298.765 344.045 304.876C327.485 320.125 317.133 330.321 315.379 345.041L315.286 355.433C315.194 368.104 304.877 378.266 292.229 378.266Z" fill="white"/>
<path d="M292.218 447.271C286.217 447.271 280.216 444.854 275.946 440.596C271.561 436.337 269.138 430.353 269.138 424.253C269.138 418.269 271.561 412.284 275.946 408.026C284.486 399.51 299.95 399.51 308.49 408.026C312.876 412.284 315.299 418.269 315.299 424.253C315.299 430.353 312.876 436.222 308.606 440.596C304.22 444.854 298.335 447.271 292.218 447.271Z" fill="white"/>
<path d="M299.176 598C272.921 598 246.898 594.593 221.82 587.861C113.756 558.871 29.1416 469.598 6.25698 360.416C-17.0662 249.185 25.9796 132.257 115.937 62.5264C167.938 22.2117 233.522 0 300.618 0C347.069 0 393.196 10.7721 434.026 31.1309C534.854 81.4351 600 186.532 600 298.891C600 390.568 556.62 478.932 483.961 535.255C431.775 575.719 366.145 598 299.176 598ZM300.63 46.0345C243.747 46.0345 188.215 64.7936 144.28 98.8706C68.1482 157.887 31.7036 256.85 51.4493 350.99C70.8141 443.347 142.399 518.878 233.822 543.403C254.988 549.077 276.984 551.965 299.176 551.965C355.932 551.965 411.499 533.126 455.641 498.911C517.14 451.242 553.85 376.47 553.85 298.891C553.85 203.818 498.721 114.879 413.391 72.3087C378.932 55.1263 339.948 46.0345 300.63 46.0345Z" fill="white"/>
</svg>
