<?xml version="1.0" encoding="UTF-8"?><svg id="Capa_1" xmlns="http://www.w3.org/2000/svg" viewBox="0 0 120 120"><defs><style>.cls-1{fill:#003180;}</style></defs><circle class="cls-1" cx="59.7" cy="77.53" r="2.47"/><rect class="cls-1" x="57.88" y="35.61" width="3.63" height="32.98" rx="1.82" ry="1.82" transform="translate(119.39 104.2) rotate(180)"/><path class="cls-1" d="m38.7,30.65h2.74c.97,0,1.75.79,1.75,1.75h0c0,1.49-.49,2.95-1.39,4.14l-1.17,1.54c-.85,1.12-1.57,2.34-2.17,3.61-.71,1.5-1.58,2.93-2.59,4.27-4.24,5.64-6.73,12.67-6.73,20.28,0,8.19,2.93,15.69,7.79,21.53.8.96,1.99,1.52,3.25,1.52h39.24c1.25,0,2.44-.55,3.25-1.52,4.86-5.84,7.79-13.34,7.79-21.53,0-7.63-2.6-14.66-6.91-20.31-1.02-1.34-1.9-2.78-2.62-4.28-.59-1.25-1.3-2.44-2.14-3.55l-1.19-1.57c-.9-1.19-1.39-2.64-1.39-4.13h0c0-.97.78-1.75,1.75-1.75h2.68c.95,0,1.73.76,1.75,1.71v.73c.31,3.76,1.65,7.38,3.96,10.39,4.86,6.29,7.75,14.18,7.75,22.75s-3.14,17.1-8.36,23.52c0,.01,0,.02,0,.03l-1.97,6.48c-.26.84-1.06,1.36-1.9,1.28h-4.36c-1.11,0-2-.89-2-1.99v-2.64l-4.98.02v2.81c0,1.1-.98,1.98-2.12,1.79-.89-.15-1.51-.98-1.51-1.89v-2.72s-5.18,0-5.18,0v2.81c0,1.1-.98,1.98-2.12,1.79-.89-.15-1.51-.98-1.51-1.89v-2.72s-5.33,0-5.33,0v2.81c0,1.1-.98,1.98-2.12,1.79-.89-.15-1.51-.98-1.51-1.89v-2.72s-5.13-.02-5.13-.02v2.64c0,1.11-.9,2-2,2h-4.8c-.71-.07-1.35-.56-1.57-1.28l-2.13-7s0-.02,0-.02c-4.98-6.34-7.95-14.32-7.95-23,0-8.15,2.62-15.68,7.05-21.81,2.42-3.35,3.92-7.25,4.34-11.33l.04-.78c.05-.93.81-1.67,1.75-1.66Z"/></svg>