<?xml version="1.0" encoding="UTF-8"?><svg id="Capa_1" xmlns="http://www.w3.org/2000/svg" viewBox="0 0 120 120"><defs><style>.cls-1{fill:#003180;}</style></defs><path class="cls-1" d="m74.93,39.27c-.72-.72-1.9-.72-2.62,0l-9.47,9.4c-.86-.45-1.83-.7-2.86-.7-3.41,0-6.19,2.78-6.19,6.19s2.78,6.19,6.19,6.19,6.19-2.78,6.19-6.19c0-1.03-.25-2-.7-2.86l9.47-9.4c.72-.72.72-1.9,0-2.62Zm-14.95,17.36c-1.36,0-2.47-1.11-2.47-2.47s1.11-2.47,2.47-2.47,2.47,1.11,2.47,2.47-1.11,2.47-2.47,2.47Z"/><path class="cls-1" d="m89.36,53.61c0-16.21-13.14-29.36-29.36-29.36s-29.36,13.14-29.36,29.36c0,12.36,7.64,22.92,18.45,27.26v18.13c0,1,.81,1.82,1.82,1.82s1.82-.81,1.82-1.82v-16.94c2.33.59,4.77.91,7.28.91s4.95-.32,7.28-.91v16.94c0,1,.81,1.82,1.82,1.82s1.82-.81,1.82-1.82v-18.13c10.81-4.33,18.45-14.9,18.45-27.26Zm-29.36,25.73c-14.21,0-25.73-11.52-25.73-25.73s11.52-25.73,25.73-25.73,25.73,11.52,25.73,25.73-11.52,25.73-25.73,25.73Z"/></svg>