<?xml version="1.0" encoding="UTF-8"?><svg id="Capa_1" xmlns="http://www.w3.org/2000/svg" viewBox="0 0 120 120"><defs><style>.cls-1{fill:#003180;}</style></defs><path class="cls-1" d="m91.04,59.71c0-16.54-12.93-30.05-29.23-30.99v-7.48c0-1-.81-1.82-1.82-1.82h0c-1,0-1.82.81-1.82,1.82v7.48c-16.3.94-29.23,14.45-29.23,30.99s12.93,30.05,29.23,30.99v7.48c0,1,.81,1.82,1.82,1.82h0c1,0,1.82-.81,1.82-1.82v-7.48c16.3-.94,29.23-14.45,29.23-30.99Zm-31.04,27.41c-15.14,0-27.41-12.27-27.41-27.41s12.27-27.41,27.41-27.41,27.41,12.27,27.41,27.41-12.27,27.41-27.41,27.41Z"/><rect class="cls-1" x="58.18" y="64.93" width="3.63" height="17.51" rx="1.82" ry="1.82" transform="translate(-13.69 133.69) rotate(-90)"/><path class="cls-1" d="m66.94,50.85h-5.13v-5.13c0-1-.81-1.82-1.82-1.82h0c-1,0-1.82.81-1.82,1.82v5.13h-5.13c-1,0-1.82.81-1.82,1.82h0c0,1,.81,1.82,1.82,1.82h5.13v5.13c0,1,.81,1.82,1.82,1.82h0c1,0,1.82-.81,1.82-1.82v-5.13h5.13c1,0,1.82-.81,1.82-1.82h0c0-1-.81-1.82-1.82-1.82Z"/></svg>