<?xml version="1.0" encoding="UTF-8"?><svg id="Capa_1" xmlns="http://www.w3.org/2000/svg" viewBox="0 0 120 120"><defs><style>.cls-1{fill:#003180;}</style></defs><path class="cls-1" d="m58.37,78.43c1.02,3.06,1.57,6.34,1.57,9.75h3.63c0-3.79-.61-7.45-1.75-10.86-.32-.96-1.36-1.48-2.31-1.16h0c-.94.32-1.46,1.33-1.14,2.27Zm-10.55-19.2c-2.89-1.87-6.08-3.32-9.49-4.27l-.55,3.62c2.9.85,5.62,2.11,8.09,3.71.78.51,1.82.32,2.4-.41h0c.66-.84.45-2.07-.45-2.66Zm1.99,6.1c2.75,2.49,5.05,5.48,6.76,8.82.43.83,1.44,1.18,2.3.82h0c.97-.41,1.39-1.57.91-2.51-1.9-3.7-4.46-7.02-7.51-9.79-.75-.68-1.92-.62-2.59.14h0c-.65.74-.6,1.87.13,2.53Z"/><path class="cls-1" d="m92.47,88.31h0c0-1-.81-1.81-1.81-1.81h-58.61l18.64-60.95c.29-.96-.25-1.97-1.2-2.27h0c-.96-.29-1.97.25-2.27,1.2l-19.62,64.17c-.22.72.32,1.44,1.07,1.44l62,.03c1,0,1.82-.81,1.82-1.81Z"/></svg>