<?xml version="1.0" encoding="UTF-8"?><svg id="Capa_1" xmlns="http://www.w3.org/2000/svg" viewBox="0 0 120 120"><defs><style>.cls-1{fill:#003180;}</style></defs><path class="cls-1" d="m60,29.31c-17.51,0-31.7,14.19-31.7,31.7s14.19,31.7,31.7,31.7,31.7-14.19,31.7-31.7-14.19-31.7-31.7-31.7Zm0,59.77c-15.5,0-28.07-12.57-28.07-28.07s12.57-28.07,28.07-28.07,28.07,12.57,28.07,28.07-12.57,28.07-28.07,28.07Z"/><path class="cls-1" d="m71.6,71.33l-9.83-23.27c-.16-.46-.5-.86-.98-1.07-.92-.4-1.99.02-2.39.94l-10.16,23.23c-.4.92.02,1.99.94,2.39.92.4,1.99-.02,2.39-.94l3.19-7.3h10.36l3.14,7.43c.39.92,1.45,1.36,2.38.97s1.36-1.45.97-2.38Zm-15.25-9.65l3.68-8.42,3.55,8.42h-7.24Z"/></svg>