<?xml version="1.0" encoding="UTF-8"?><svg id="Capa_1" xmlns="http://www.w3.org/2000/svg" viewBox="0 0 120 120"><defs><style>.cls-1{fill:#003180;}</style></defs><path class="cls-1" d="m85.02,51.85c-.84-.84-2.21-.84-3.05,0l-20.05,20.04c-3.49,3.49-9.14,3.49-12.63,0h0c-3.49-3.49-3.49-9.15,0-12.64l20.04-20.04c.84-.84.84-2.21,0-3.05l-12.2-12.2c-.84-.84-2.21-.84-3.05,0,0,0,0,0,0,0l-20.04,20.05c-11.91,11.91-11.91,31.23,0,43.14,11.91,11.91,31.23,11.91,43.14,0l20.05-20.04c.84-.84.84-2.2,0-3.05,0,0,0,0,0,0l-12.2-12.2Zm-29.41-24.27l10.1,10.1-4.68,4.68-10.1-10.1,4.68-4.68Zm18.58,57.33c-10.24,10.21-27.43,9.93-37.64-.32-10.19-10.22-10.54-27.64.27-38.21l11.55-11.55,10.11,10.11-11.55,11.55c-5.1,5.24-5.22,13.04.02,18.15,5.14,5.01,12.38,4.84,17.53-.17l11.77-11.73,10.1,10.07-12.15,12.09Zm14.72-14.63l-10.1-10.11,4.68-4.68,10.09,10.1-4.67,4.69Z"/></svg>