<?xml version="1.0" encoding="UTF-8"?><svg id="Capa_1" xmlns="http://www.w3.org/2000/svg" viewBox="0 0 120 120"><defs><style>.cls-1{fill:#003180;}</style></defs><path class="cls-1" d="m75.17,31.74l-6.94,7.51c-4.74,5.13-3.48,13.62,2.82,16.65,1.43.69,3.02,1.08,4.69,1.08,2.34,0,4.51-.76,6.33-2.04,5.07-3.56,5.56-10.93,1.35-15.48l-7.13-7.71c-.3-.33-.82-.33-1.12,0Zm.75,4.92l4.28,4.71c4.86,5.08,2.39,11.97-4.35,11.97-.04,0-.09,0-.13,0s-.09,0-.13,0c-6.6-.15-8.53-7.38-4.09-12.06l4.28-4.62s.11-.04.15,0Z"/><g><path class="cls-1" d="m50.82,100.59h.51c4.6,0,8.92-1.76,12.24-4.97,3.41-3.34,5.3-7.82,5.3-12.59,0-5.55-2.62-10.73-7.03-14.05v-31.61c0-5.81-4.72-10.54-10.54-10.54s-10.54,4.72-10.54,10.54v31.61c-4.46,3.34-7.06,8.57-7.03,14.17.07,9.36,7.73,17.18,17.07,17.44Zm-7.31-29.24c.49-.33.77-.88.77-1.46v-32.53c0-3.88,3.14-7.03,7.03-7.03s7.03,3.14,7.03,7.03v32.53c0,.58.3,1.14.77,1.46,3.92,2.62,6.25,6.99,6.25,11.68,0,3.83-1.51,7.41-4.25,10.08s-6.32,4.11-10.2,3.97c-7.46-.21-13.59-6.46-13.65-13.95-.04-4.74,2.3-9.15,6.25-11.79h0Z"/><path class="cls-1" d="m51.31,91.81c4.85,0,8.78-3.93,8.78-8.78,0-4.23-3.02-7.78-7.03-8.61v-31.79c0-.97-.79-1.76-1.76-1.76s-1.76.79-1.76,1.76v31.79c-4,.81-7.03,4.36-7.03,8.61,0,4.85,3.93,8.78,8.78,8.78Zm0-14.05c2.9,0,5.27,2.37,5.27,5.27s-2.37,5.27-5.27,5.27-5.27-2.37-5.27-5.27,2.37-5.27,5.27-5.27Z"/></g></svg>