<?xml version="1.0" encoding="UTF-8"?><svg id="Capa_1" xmlns="http://www.w3.org/2000/svg" viewBox="0 0 120 120"><defs><style>.cls-1{fill:#003180;}</style></defs><path class="cls-1" d="m88.18,57.32c-8.71-8.71-20.74-12.89-33.24-11.36-7.03.86-13.75,3.64-19.33,8.01-9.92,7.76-15.46,19.22-15.46,31.54v4.89h30.39l.19-2.13c.2-2.31,1.26-4.45,2.97-6.03,1.72-1.59,3.96-2.46,6.31-2.46.49,0,1.54.07,1.92.26l-3.7,5.05s-.04.09-.04.14v3.45c0,1,.82,1.81,1.82,1.81h0c1,0,1.82-.81,1.82-1.82v-2.34s3.55-4.84,3.55-4.84c.16.13.79.6.95.75,1.71,1.58,2.77,3.72,2.97,6.03l.19,2.13h30.39v-4.89c0-10.65-4.15-20.65-11.67-28.18h0Zm8,29.4h-23.61c-.65-2.64-1.71-5.09-3.74-6.96-.29-.27-1.04-.94-1.35-1.18l9.41-12.85c.59-.81.42-1.95-.4-2.54h0c-.81-.59-1.94-.41-2.53.4l-9.75,13.31c-1.41-.47-2.7-.8-4.22-.8-3.52,0-6.48,1.48-8.65,3.36-2.52,2.15-3.27,4.61-3.92,7.26h-23.61v-1.21c0-9.4,3.66-19.23,10.31-25.88,6.65-6.65,16.48-10.31,25.88-10.31s19.23,3.66,25.88,10.31c6.65,6.65,10.31,16.48,10.31,25.88v1.21Z"/><polygon class="cls-1" points="30.02 34.7 30.02 38.33 23.63 38.33 23.63 40.35 30.02 40.35 30.02 43.98 23.63 43.98 23.63 46 30.02 46 30.02 49.63 20 49.63 20 34.7 30.02 34.7"/><polygon class="cls-1" points="98.74 34.7 98.74 38.33 92.36 38.33 92.36 40.35 98.74 40.35 98.74 43.98 92.36 43.98 92.36 49.63 88.73 49.63 88.73 34.7 98.74 34.7"/></svg>