<?xml version="1.0" encoding="UTF-8"?><svg id="Capa_1" xmlns="http://www.w3.org/2000/svg" viewBox="0 0 120 120"><defs><style>.cls-1{fill:#003180;}</style></defs><path class="cls-1" d="m30.73,63.19c5-.05,9.04-4.12,9.05-9.13v-10.15c0-2.34,2.11-4.2,4.53-3.78,1.87.32,3.15,2.09,3.15,3.99v35.58c0,4.2,3.47,7.59,7.7,7.46,4.09-.12,7.24-3.69,7.24-7.78v-35.48c0-2.12,1.72-3.84,3.84-3.84h0c2.12,0,3.84,1.72,3.84,3.84v35.79c0,4.2,3.48,7.59,7.71,7.46,4.09-.12,7.24-3.69,7.24-7.78v-6.3c0-2.71,2.19-4.9,4.9-4.9h.1c1,0,1.82-.81,1.82-1.82s-.81-1.82-1.82-1.82c-4.77,0-8.63,3.86-8.63,8.63v6.3c0,1.9-1.28,3.67-3.15,3.99-2.42.42-4.52-1.43-4.52-3.78v-35.79c0-4.2-3.48-7.59-7.71-7.46-4.09.12-7.24,3.69-7.24,7.78v35.48c0,2.12-1.72,3.84-3.84,3.84h0c-2.12,0-3.84-1.72-3.84-3.84v-35.79c0-4.2-3.47-7.59-7.7-7.46-4.09.12-7.24,3.69-7.24,7.78v9.85c0,3.03-2.45,5.49-5.48,5.49h-.67c-1,0-1.82.81-1.82,1.82s.81,1.82,1.82,1.82h.73Z"/></svg>