<?xml version="1.0" encoding="UTF-8"?><svg id="Capa_1" xmlns="http://www.w3.org/2000/svg" viewBox="0 0 120 120"><defs><style>.cls-1{fill:#003180;}</style></defs><path class="cls-1" d="m72.91,59.45l-11.92-11.92c-.71-.71-1.86-.71-2.57,0s-.71,1.86,0,2.57l9.1,9.1h-34.71c-.85,0-1.56.97-1.56,1.81s.71,1.82,1.56,1.82h34.73l-9.18,9.18c-.71.71-.71,1.86,0,2.57s1.86.71,2.57,0l11.98-11.98c.87-.87.87-2.27,0-3.14Z"/><path class="cls-1" d="m87.8,88.09v-54.09c0-1.66-1.34-3-3-3h-37.88c-1.66,0-3,1.34-3,3v14.37c0,1,.81,1.82,1.82,1.82h0c1,0,1.82-.81,1.82-1.82v-12.74c0-.55.45-1,1-1h34.62c.55,0,1,.45,1,1v50.82c0,.55-.45,1-1,1h-34.62c-.55,0-1-.45-1-1v-12.82c0-1-.81-1.82-1.82-1.82h0c-1,0-1.82.81-1.82,1.82v14.45c0,1.66,1.34,3,3,3h37.88c1.66,0,3-1.34,3-3Z"/></svg>